<?xml version="1.0" standalone="no"?>
<!DOCTYPE svg PUBLIC "-//W3C//DTD SVG 20010904//EN"
 "http://www.w3.org/TR/2001/REC-SVG-20010904/DTD/svg10.dtd">
<svg version="1.0" xmlns="http://www.w3.org/2000/svg"
 width="64.000000pt" height="64.000000pt" viewBox="0 0 64.000000 64.000000"
 preserveAspectRatio="xMidYMid meet">

<g transform="translate(0.000000,64.000000) scale(0.100000,-0.100000)"
fill="#000000" stroke="none">
<path d="M223 622 c-109 -39 -178 -112 -210 -221 -29 -102 4 -228 82 -306 122
-121 328 -121 450 0 91 92 118 241 64 356 -69 146 -241 223 -386 171z m199
-42 c185 -70 237 -314 96 -457 -139 -142 -389 -90 -458 95 -86 229 134 449
362 362z"/>
<path d="M212 535 c-119 -61 -165 -198 -108 -322 42 -89 131 -139 236 -131 77
6 144 46 185 112 27 44 30 58 30 126 0 68 -3 82 -30 126 -66 106 -202 145
-313 89z m184 -26 c30 -9 104 -74 104 -91 0 -4 -81 -8 -180 -8 -99 0 -180 3
-180 8 1 9 28 41 58 66 27 24 108 46 142 39 14 -3 39 -9 56 -14z m124 -149 c0
-12 -9 -24 -22 -29 -53 -20 -77 -76 -54 -123 23 -46 5 -60 -32 -25 -36 35 -82
48 -124 36 -17 -5 -44 -21 -60 -36 -37 -35 -55 -21 -32 25 23 47 -1 103 -53
123 -14 5 -23 17 -23 29 0 19 6 20 200 20 194 0 200 -1 200 -20z m-366 -79
c19 -20 19 -62 0 -68 -12 -4 -34 39 -34 67 0 25 12 25 34 1z m366 -1 c0 -28
-22 -71 -34 -67 -19 6 -19 48 0 68 22 24 34 24 34 -1z m-136 -120 c24 -23 19
-29 -28 -40 -33 -7 -100 1 -113 14 -8 8 17 37 42 47 28 12 76 2 99 -21z"/>
<path d="M298 349 c-52 -30 -37 -99 22 -99 60 0 74 71 20 100 -22 12 -21 12
-42 -1z m38 -40 c10 -17 -13 -36 -27 -22 -12 12 -4 33 11 33 5 0 12 -5 16 -11z"/>
</g>
</svg>
